<svg width="136" height="136" viewBox="0 0 136 136" fill="none" xmlns="http://www.w3.org/2000/svg">
<g clip-path="url(#clip0_2046_1707)">
<path d="M43.0667 95.1022C51.3776 101.146 59.689 105.982 68 105.982C76.311 105.982 84.6224 101.146 92.9333 95.1022C86.0829 93.0168 82.6073 89.9039 82.5067 85.7635C82.5067 85.0255 82.5121 83.9774 82.5171 82.0094C82.5171 81.6969 82.5178 81.3769 82.5194 81.0493C82.533 75.7725 82.5552 68.8093 82.5864 61.7373C89.0836 53.3157 86.6968 43.4426 84.6609 43.6887C82.1648 43.9925 60.5395 23.471 56.3915 22.4188C52.2435 21.3666 41.7067 24.7634 39.8933 34.2268C38.08 43.6901 37.322 67.5436 44.2 77.0667C46.1572 79.7768 49.2399 80.8368 53.448 80.2469C53.4539 82.2275 53.4657 83.3391 53.4933 85.5822C53.4394 89.911 49.9641 93.0191 43.0667 95.1022Z" fill="url(#paint0_linear_2046_1707)"/>
<path d="M53.4933 80.24C63.4667 79.1067 69.8134 74.8 69.8134 74.8C69.8134 74.8 62.56 83.8667 53.4933 85.68V80.24Z" fill="#FC9F6A"/>
<path d="M85.9067 61.88C89.0301 54.3683 101.547 39.0697 90.7573 29.5497C87.1307 11.8697 67.0933 13.8267 53.72 17.9067C44.7318 20.6489 37.944 26.0667 36.4933 21.9867C27.4267 29.5497 31.9672 36.9467 37.944 39.0697C43.3686 40.9963 52.5413 42.923 68.1387 41.1097C70.9249 40.7855 70.3415 49.3186 71.8302 50.2412C74.0638 51.6252 75.7973 42.923 81.921 45.536C88.0446 48.149 84.4107 60.2648 77.8373 60.2648C75.5707 60.2648 74.4373 66.4968 80.5573 69.4434C85 71.6267 83.8771 66.7611 85.9067 61.88Z" fill="url(#paint1_linear_2046_1707)"/>
<path d="M115.6 108.94C119.916 117.715 122.4 137.953 122.4 137.953H13.6C13.6 137.953 16.0851 117.713 20.4 108.94C24.7148 100.167 49.912 92.0299 49.912 92.0299C63.8352 97.4667 72.3556 97.4667 86.0748 92.0267C86.0748 92.0267 111.284 100.165 115.6 108.94Z" fill="url(#paint2_linear_2046_1707)"/>
<path d="M71.1733 95.2L73.44 136.907H62.56L64.8267 95.2C64.8267 95.2 66.9424 92.9333 68 92.9333C69.0576 92.9333 71.1733 95.2 71.1733 95.2Z" fill="url(#paint3_linear_2046_1707)"/>
<path d="M71.6896 103.674L64.561 99.5547L64.8266 95.2C66.2371 93.6889 67.2949 92.9333 68 92.9333C68.705 92.9333 69.7628 93.6889 71.1733 95.2L71.6901 103.674H71.6896Z" fill="#645050"/>
<path d="M68 92.9297L63.4667 101.093L49.4133 92.48L53.4933 86.5867L68 91.9455L82.5067 86.5867L86.5867 92.48L72.5333 101.093L68 92.9297Z" fill="white"/>
</g>
<defs>
<linearGradient id="paint0_linear_2046_1707" x1="65.7885" y1="22.2347" x2="65.7885" y2="105.982" gradientUnits="userSpaceOnUse">
<stop stop-color="#F7B186"/>
<stop offset="1" stop-color="#FFC299"/>
</linearGradient>
<linearGradient id="paint1_linear_2046_1707" x1="63.213" y1="15.1359" x2="63.213" y2="69.9803" gradientUnits="userSpaceOnUse">
<stop stop-color="#1D0024"/>
<stop offset="1" stop-color="#100014"/>
</linearGradient>
<linearGradient id="paint2_linear_2046_1707" x1="68" y1="92.0267" x2="68" y2="137.953" gradientUnits="userSpaceOnUse">
<stop stop-color="#1D0024"/>
<stop offset="1" stop-color="#100014"/>
</linearGradient>
<linearGradient id="paint3_linear_2046_1707" x1="68" y1="92.9333" x2="68" y2="136.907" gradientUnits="userSpaceOnUse">
<stop stop-color="#806A6A"/>
<stop offset="1" stop-color="#665654"/>
</linearGradient>
<clipPath id="clip0_2046_1707">
<rect width="136" height="136" rx="68" fill="white"/>
</clipPath>
</defs>
</svg>
