<svg width="95" height="97" viewBox="0 0 95 97" fill="none" xmlns="http://www.w3.org/2000/svg">
<g clip-path="url(#clip0_2052_1560)">
<path d="M93.1818 53.0294C94.0421 54.3464 94.5001 55.8855 94.5 57.4586C94.5028 58.8585 94.1435 60.2354 93.4572 61.4556C92.7708 62.6757 91.7806 63.6977 90.5827 64.4222C89.3872 65.1461 88.3985 66.1661 87.7123 67.3837C87.0261 68.6013 86.6655 69.9753 86.6654 71.3729C86.6653 71.7218 86.6874 72.0704 86.7315 72.4166C86.7772 72.766 86.8002 73.1179 86.8005 73.4703C86.7973 75.4891 86.0429 77.4345 84.6842 78.9277C83.3255 80.4208 81.4598 81.3549 79.4503 81.5481C77.882 81.6983 76.3911 82.3011 75.1592 83.2832C73.9274 84.265 73.0083 85.5842 72.5141 87.0799C71.9765 88.7014 70.9418 90.1125 69.5568 91.1127C68.1719 92.1129 66.5071 92.6514 64.7988 92.6519C63.8401 92.651 62.8892 92.4807 61.9898 92.1488C61.0905 91.8169 60.1394 91.647 59.1808 91.647C58.091 91.6468 57.0122 91.8658 56.0088 92.2911C55.0054 92.7164 54.0978 93.3392 53.3401 94.1226C52.5831 94.9069 51.6757 95.5305 50.6721 95.9558C49.6685 96.3812 48.5893 96.5996 47.4993 96.5981C46.4095 96.5995 45.3306 96.381 44.3272 95.9557C43.3239 95.5303 42.4167 94.9068 41.66 94.1226C40.9021 93.3394 39.9945 92.7166 38.9911 92.2913C37.9877 91.8661 36.909 91.6469 35.8192 91.647C34.8606 91.647 33.9096 91.8169 33.0102 92.1488C32.1108 92.4805 31.1599 92.6508 30.2012 92.6519C28.4929 92.6514 26.8281 92.1129 25.4432 91.1127C24.0583 90.1125 23.0235 88.7014 22.4859 87.0799C21.9906 85.5844 21.0711 84.2653 19.8394 83.2832C18.6081 82.3009 17.1177 81.698 15.5497 81.5481C13.5402 81.3549 11.6745 80.4208 10.3158 78.9277C8.95715 77.4345 8.20276 75.4891 8.19953 73.4703C8.19931 73.118 8.22188 72.766 8.2671 72.4166C8.31237 72.0705 8.33493 71.7219 8.33466 71.3729C8.33451 69.9753 7.97391 68.6013 7.2877 67.3837C6.60149 66.1661 5.61286 65.1461 4.41733 64.4222C3.22008 63.6981 2.23028 62.6768 1.54393 61.4575C0.857578 60.2381 0.497979 58.8621 0.500009 57.4629C0.499894 55.8898 0.957967 54.3507 1.81825 53.0337C2.67846 51.7145 3.13647 50.1737 3.13648 48.5988C3.13862 47.02 2.68052 45.4749 1.81825 44.1524C0.957585 42.8355 0.499478 41.2963 0.500009 39.7232C0.497947 38.3241 0.857545 36.9483 1.54391 35.7292C2.23027 34.5101 3.22009 33.4891 4.41733 32.7653C5.61278 32.041 6.60131 31.0206 7.2875 29.8029C7.97368 28.5851 8.33434 27.211 8.33466 25.8132C8.33493 25.4647 8.31236 25.1165 8.2671 24.7709C8.22192 24.421 8.19935 24.0686 8.19953 23.7158C8.20276 21.697 8.95715 19.7516 10.3158 18.2584C11.6745 16.7653 13.5402 15.8312 15.5497 15.638C17.1177 15.488 18.6081 14.8852 19.8394 13.9029C21.0717 12.9214 21.9914 11.602 22.4859 10.1062C23.0235 8.48464 24.0583 7.07362 25.4432 6.07342C26.8281 5.07321 28.4929 4.53464 30.2012 4.53415C31.1607 4.53871 32.1118 4.71345 33.0102 5.05025C33.9097 5.38144 34.8606 5.55129 35.8192 5.55196C36.9091 5.55212 37.988 5.33291 38.9914 4.90737C39.9949 4.48183 40.9024 3.85867 41.66 3.07502C42.4162 2.28971 43.3232 1.66515 44.3266 1.23879C45.3299 0.812429 46.4091 0.593035 47.4993 0.593759C48.5893 0.592179 49.6685 0.81061 50.6721 1.23597C51.6757 1.66134 52.5831 2.28488 53.3401 3.06926C54.4344 4.2027 55.8348 4.99343 57.3706 5.34515C58.9063 5.69688 60.5112 5.59442 61.9898 5.05025C62.8889 4.71725 63.84 4.54641 64.7988 4.54566C66.5071 4.54614 68.1719 5.08472 69.5568 6.08492C70.9418 7.08513 71.9765 8.49615 72.5141 10.1177C73.0076 11.6137 73.9268 12.9332 75.1592 13.9143C76.3911 14.8965 77.882 15.4993 79.4503 15.6495C81.4598 15.8427 83.3255 16.7768 84.6842 18.2699C86.0429 19.7631 86.7973 21.7084 86.8005 23.7273C86.8002 24.0801 86.7771 24.4326 86.7315 24.7824C86.6874 25.1281 86.6653 25.4762 86.6654 25.8247C86.6657 27.2225 87.0264 28.5966 87.7125 29.8144C88.3987 31.0321 89.3872 32.0525 90.5827 32.7768C91.7791 33.5001 92.7684 34.5202 93.4547 35.7382C94.141 36.9562 94.5011 38.3309 94.5 39.7289C94.4994 41.3001 94.0414 42.8372 93.1818 44.1524C92.3214 45.472 91.8634 47.0134 91.8635 48.5887C91.8624 50.1656 92.3205 51.7086 93.1818 53.0294Z" fill="url(#paint0_linear_2052_1560)"/>
<path d="M47.5006 85.5973C67.9366 85.5973 84.5032 69.0304 84.5032 48.5941C84.5032 28.1577 67.9366 11.5908 47.5006 11.5908C27.0647 11.5908 10.498 28.1577 10.498 48.5941C10.498 69.0304 27.0647 85.5973 47.5006 85.5973Z" fill="url(#paint1_linear_2052_1560)"/>
<path d="M40.0815 70.5502L24.2368 54.7037L31.0393 47.9011L39.3412 56.2031L62.1939 28.0654L69.662 34.1306L40.0815 70.5502Z" fill="white"/>
</g>
<defs>
<linearGradient id="paint0_linear_2052_1560" x1="92.4204" y1="0.593752" x2="0.180728" y2="94.6534" gradientUnits="userSpaceOnUse">
<stop offset="0.0144231" stop-color="#DF1C57"/>
<stop offset="0.139423" stop-color="#A42878"/>
<stop offset="0.399038" stop-color="#67478B"/>
<stop offset="0.855769" stop-color="#31708D"/>
</linearGradient>
<linearGradient id="paint1_linear_2052_1560" x1="82.8659" y1="11.5908" x2="11.8065" y2="85.596" gradientUnits="userSpaceOnUse">
<stop offset="0.390412" stop-color="#13A183"/>
<stop offset="1" stop-color="#5EBA4F"/>
</linearGradient>
<clipPath id="clip0_2052_1560">
<rect width="94" height="96" fill="white" transform="translate(0.5 0.59375)"/>
</clipPath>
</defs>
</svg>
